<?xml version="1.0" encoding="UTF-8"?>
<svg width="20px" height="20px" viewBox="0 0 20 20" version="1.1" xmlns="http://www.w3.org/2000/svg" xmlns:xlink="http://www.w3.org/1999/xlink">
    <!-- Generator: Sketch 49.2 (51160) - http://www.bohemiancoding.com/sketch -->
    <title>Shape</title>
    <desc>Created with Sketch.</desc>
    <defs></defs>
    <g id="Material-GUI-" stroke="none" stroke-width="1" fill="none" fill-rule="evenodd">
        <g id="Albums" transform="translate(-291.000000, -546.000000)" fill="#4285F4">
            <g id="Bottom-nav" transform="translate(0.000000, 536.000000)">
                <g id="Search" transform="translate(240.000000, 0.000000)">
                    <g id="ic_collections_bookmark_black_24px" transform="translate(51.000000, 10.000000)">
                        <g id="Group">
                            <path d="M18,0 C19.1,0 20,0.9 20,2 L20,14 C20,15.1 19.1,16 18,16 L6,16 C4.9,16 4,15.1 4,14 L4,2 C4,0.9 4.9,0 6,0 L18,0 Z M2,4 L2,18 L16,18 L16,20 L2,20 C0.9,20 0,19.1 0,18 L0,4 L2,4 Z M18,10 L15.5,8.5 L13,10 L13,2 L18,2 L18,10 Z" id="Shape"></path>
                        </g>
                    </g>
                </g>
            </g>
        </g>
    </g>
</svg>